<svg xmlns="http://www.w3.org/2000/svg" viewBox="0 0 100 100" height="100" fill="black"><path d="M724.27 7.11c-6.85 10.37-18.58 40.49-20.73 53.4-3.72 22.1-4.5 22.88-31.49 34.62-13.11 5.67-27.78 18.58-33.45 29.54-9 17.21-4.11 41.66 13.3 65.72 3.72 5.28 6.85 9.98 6.85 10.37 0 .39-10.17 5.67-22.69 11.74-81.57 39.11-135.36 88.4-168.03 153.73-4.5 9.19-10.17 21.91-12.52 28.36l-4.3 11.74h-25.82c-25.04 0-26.21.2-39.12 6.26-9.19 4.3-18.19 11.15-29.73 22.1-9 8.61-17.6 15.65-19.17 15.65-4.69 0-7.43-4.89-14.48-25.82-7.04-21.52-15.45-36.38-18.39-33.45-.98.98 0 9.98 2.54 22.3 4.89 23.47 4.11 29.73-4.3 34.03s-18 3.72-41.08-2.93c-11.34-3.33-23.67-5.87-27.38-5.87l-6.85.2 4.89 3.91c2.74 2.35 10.17 6.85 16.63 9.98 16.63 8.41 42.65 25.82 45.58 30.91 3.91 6.26 1.37 10.37-10.56 17.8-23.28 14.28-28.17 17.8-28.17 20.54 0 1.56.78 2.74 1.56 2.74 6.65 0 58.29-20.15 80.98-31.49 19.95-9.98 36.19-13.5 62.2-13.3 26.01.2 30.51 1.37 29.73 7.82-1.57 11.54-11.15 52.03-18.19 77.07-21.52 74.92-49.88 121.86-97.02 161.37-44.21 36.97-74.13 52.03-137.31 69.44-37.16 10.17-68.85 28.76-99.76 58.49-33.06 31.88-52.81 63.57-61.62 99.56-4.69 18.78-8.8 54.18-4.69 40.49C26.94 943.47 42 916.28 71.14 887.14c7.82-7.82 21.71-18.97 30.71-25.04 28.75-18.58 52.42-26.79 98-34.23 79.02-12.52 139.47-37.75 187.78-78.04 35.8-29.73 81.37-95.26 122.65-176.24 9-17.8 16.43-32.47 16.63-32.66 0-.39 11.54 5.28 25.43 12.32l25.23 13.11 13.3-1.17c9.78-.78 17.8-3.33 30.71-9.2 20.15-9.19 38.53-13.69 57.7-13.69 22.88 0 62.4-8.21 61.03-12.52-.39-1.37-9.78-2.54-24.06-3.13-12.71-.58-24.45-1.76-25.63-2.54-7.63-4.89 0-18.78 24.65-44.99 26.99-28.95 26.6-32.27-1.37-13.3-22.69 15.06-35.99 21.71-44.21 21.71-10.95 0-12.91-4.69-12.91-30.71 0-35.99-6.26-29.93-13.5 12.91-2.35 13.3-4.11 26.21-4.11 28.75 0 7.24-7.04 10.56-21.91 10.56-17.21 0-29.14-4.69-45.97-17.8-7.43-5.67-13.69-10.56-14.08-10.76-1.57-1.17 15.06-28.95 26.8-44.99 14.67-19.56 62.79-68.85 89.39-91.15 27.38-22.89 54.18-42.84 56.53-42.05 1.17.39 5.08 5.48 8.61 11.15 9 15.06 8.61 24.25-1.96 47.34-13.3 29.73-10.37 45.38 13.11 71.4 8.8 9.78 14.67 13.89 30.91 21.91 26.02 12.91 48.31 17.6 48.31 10.17 0-.98-7.24-5.48-16.04-9.98-16.61-8.63-22.87-14.11-23.07-19.98 0-6.45 8.41-9 42.84-13.1 18.78-2.15 34.82-4.69 35.99-5.87 3.33-3.33-7.04-5.87-35.01-9-24.65-2.54-33.06-4.69-36.58-9.58-.78-1.37 6.65-9.78 19.56-22.1 11.74-10.95 20.54-20.54 19.56-21.32-1.76-1.76-22.49 7.82-32.67 15.06-11.93 8.61-15.26 9.98-19.56 7.63-5.28-2.74-4.89-7.43 1.17-16.23 15.26-22.69 16.43-39.32 4.89-73.74-4.11-12.32-7.43-22.69-7.24-22.69 2.93-2.74 47.14-26.41 52.42-27.97 3.91-1.37 18-3.13 31.3-4.11 13.3-.78 27.97-2.93 32.67-4.69 17.41-6.26 35.79-23.28 58.68-53.99 19.17-25.43 31.69-50.86 32.08-64.35.39-9.39-.2-10.76-5.87-15.84-11.54-10.37-24.25-12.71-67.09-12.52-59.27 0-75.31 5.48-96.63 32.86-13.89 17.8-39.12 42.45-48.12 47.14-8.02 4.11-45.18 18.58-47.73 18.58-1.17 0-5.87-6.45-10.37-14.08-9.58-16.04-10.76-26.02-4.69-34.62 6.06-8.22 20.93-15.26 38.34-17.8 8.61-1.17 22.69-3.91 31.3-6.06 32.28-7.82 31.88-11.15-1.76-11.93-19.56-.59-23.67-1.17-25.43-4.11-3.52-5.48 4.7-18 26.8-41.66 10.76-11.54 18.58-21.52 17.41-21.91-1.17-.39-10.76 5.48-21.32 12.91-28.16 19.95-37.75 24.26-46.94 21.13-8.22-2.74-8.22-9.78-.59-38.14 4.69-17.64 3.32-24.68-2.94-15.09zm176.05 96.04c2.74 2.54 4.89 6.85 4.89 9.39 0 6.46-6.85 13.11-13.69 13.11-12.71 0-18.39-15.45-8.61-23.28 6.84-5.29 11.54-5.09 17.41.78zm29.73 56.72c5.28 3.72 7.24 11.54 4.3 17.21-3.13 5.67-5.48 7.24-12.32 7.24-7.63 0-12.91-5.09-12.91-12.52 0-7.04 1.37-9.39 6.85-12.52 5.28-2.93 9.19-2.93 14.08.59z"/></svg>