<svg xmlns="http://www.w3.org/2000/svg" viewBox="0 0 1312 1312"><defs><style>.cls-2{fill:#fcfcfc}</style></defs><g id="Layer_3" data-name="Layer 3"><path d="M565.88 459c-1.43.26-1.33.17-2.07.7-8.41 8-14 21.4-22.78 28.41-17.92 14.29-37.28 33.63-51.1 52l-9 8.32c-3.78 5-8.15 11.48-13.11 15.25-3.44 2.6-9.83 6.61-11.74 10.4-1.8 3.55.53 7.67-2.75 9.7-1.56 1.21-4.65 1.64-6.92 2.09-.94 4.36-5.65 8.18-2.05 13.15 3.26-2.83 9.26-2.69 13.83-4.18 10.33-3.37 24.78-7.6 38.74-4.92-.14 4.13 3.43 9 4.87 13.83 3.76 12.76 2.91 26.73 8.38 37.34l.69-.69c5.63-4 6.69-12 10.35-18 5.81-9.59 12.19-19.12 17.93-28.41 3.82-6.19 5.13-13 9-19.39 2.74-4.54 6.84-8.93 9.67-13.17 3.52-5.28 4.22-11 6.88-17.31 2.29-5.38 6.8-10.33 9.66-15.24q1-3.81 2.06-7.62c2.51-4.63 6.8-9.84 9.66-14.55 4.62-7.62 6.26-16.48 11-24.24 2.8-4.56 6.86-9.32 9.66-13.85q3.09-7.27 6.2-14.55c2.52-3.75 6.34-7.12 8.28-11.78.45-2.31.91-4.61 1.36-6.92a103.29 103.29 0 019-15.93c4.64-6.84 14.68-11.34 18-19.41-.24-3.23-.47-6.46-.71-9.69 2-8.61 10.59-19.38 20-20.8 1.73 1.2 3.54 1.14 4.85 2.76.55.7.23 2.37 1.4 4.15 2.6 4 6.92 7.08 9 11.74 1.43 3.18 1.23 5.78 2.79 9 .69.69 1.39 1.38 2.08 2.08.61 2.3-.84 5.51 0 9 .74 3 1.12 9.38 2.79 12.45l3.47 2.76c.4 1-.15 5.25.7 7.61 2.3 6.4 6.9 21.54 4.21 29.75-2.61 8-9.29 14-13.1 20.78-1 1.72-.41 3.27-1.37 4.85-4.76 7.77-12.48 15.36-15.87 24.25-.46 2.77-.91 5.53-1.37 8.3h.69c1.81-1.84 4.1-2.58 6.22-4.16l12.43-13.17c10.29-7.82 18.6-17.1 29-25L734 459.33c6.83-4.29 12.29-9.08 18.65-13.87L763 434.37a80.26 80.26 0 0015.88-15.95c2.44-3.24 6.68-4.87 9-8.32 3.23 1.38 10.5-1.35 14.53 1.35 2.56.81 6 3.76 6.94 6.22 1.84 3 .35 8.76 1.41 12.45 1.73 6 2.65 15.85 4.19 22.82v12.46c.82 3.3 4.23 8.22 3.48 12.45-1 5.92-2.76 12.23-2.72 20.76-4.68 3.08-8.38 8-11.74 12.48-3.57 4.73-9.71 8.2-14.51 11.79l-7.59 8.32c-9 6.72-16 14.78-24.87 21.5l-9.67 10.4c-25.88 19.64-47.15 44.1-73.22 63.81-6.85 5.18-12.5 12.85-19.33 18-14.52 11-30.31 23.09-40.75 38.13-4.93 7.11-11.79 6.45-11.73 19.4 6.64 4.8 11.59 16.7 16 24.19l2.77 2.07c3.72 5.09 6.64 10 10.41 15.2l5.54 4.83c4.62 6.15 7.44 13 11.81 19.35 6.71 9.82 16 17.95 22.2 28.33 4.36-.62 10.69.49 15.91-.73 3.26-10.47 7.17-19.41 11-28.39 3.37-7.87 4.44-15.53 8.26-22.85 1.42-2.73 4.25-6 5.52-9 2.11-5 2-9.46 4.12-14.54 3.18-7.65 6.37-15.24 9.64-23.55 3.38-8.58 9.33-17.41 13.1-25.63.45-2.53.91-5.07 1.36-7.61 3.09-7.45 7.28-18.95 11.72-25.63l2.76-2.08c4.32-6.5 6.34-14 11-20.09l6.91-4.85c.46-2.31.91-4.62 1.37-6.93a71.91 71.91 0 016.89-13.16c9.31-13.38 20.09-18.8 20-42.25 9.24-6.43 12.72-22 19.32-31.17l13.81-13.87c8.46-12.35 14.82-31.67 20-45 3.59-9.3 10.4-18.82 15.86-27l4.15-4.16c2.87-5.39 3.81-10.27 6.89-15.24 2.38-3.85 6.41-6.87 9-10.4 4.3-5.92 7.37-12.07 11.73-18 1.8-2.46 5.4-3.46 7.6-5.55 6.55 1.57 8 5.75 12.47 9-1.7 9.88 4.38 23.1 7 31.81 2.43 8.11 1.52 14.64 3.51 22.83 1.26 5.18 4 12.21 1.42 19.37-.82 2.31-3.62 5.31-4.83 7.62-7 13.49-14.5 25-22.06 37.41-4.63 7.63-7 15.82-11.72 23.55-8.65 14.25-18 28.65-26.9 43-4.21 6.81-5.53 14.43-9.64 21.47-2 3.39-7.37 3.88-9 7.63-1.88 2.91-.84 7.23-2.06 11.07a65.53 65.53 0 01-6.2 12.47c-2.07 3.35-5.89 6.79-7.59 10.39-3.39 7.18-5 13-9 19.4-2.46 4-6.48 9.47-8.28 13.85.23.69.46 1.39.7 2.08-.47 2.79-2.76 7-4.14 9.69-5.67 10.85-13.12 22.59-17.92 33.94-1.51 3.58-1.23 6.81-2.75 10.39-1.73 4.08-5.12 8.4-6.89 12.47-3.9 9-5.82 17.59-9.63 26.31-1.15 2.62-3.83 5.65-4.83 8.31q-1.38 6.24-2.74 12.46c-1.83 4.32-5.89 9-7.59 13.17-1 2.52-.85 9.33-2.74 13.15l-3.42 3.43c-1.64 2.85-2.46 7.72-3.44 10.38-4.21 11.41-6.32 22.44-11 33.93-3.43 8.43-7.39 17.38-10.32 26.31-2.68 8.16-2 21.1-11.72 22.17-6-4-15.28-2.75-20.77-6.88-2.23-1.68-2.55-6-4.17-8.29-3.93-5.52-9-10.28-13.18-15.89-4.76-6.37-14.9-8.79-19.4-14.49-3.71-4.7-8.57-13.24-16-13.81-1.07-.72-2.83-.71-4.84-.68-2.58-4-7-6.69-9.71-10.36-6-8.07-11.33-16.21-17.35-24.19l-9.7-9c-2.59-3.47-3.73-7.4-6.25-11.06-3.58-5.19-9.4-9.49-13.18-14.5-7.46-9.91-15.41-20.27-22.2-30.41-3 .93-9 .09-13.84 0-2.27 2.92-7.47 3.37-9.67 6.25l-1.38 6.25c-2.66 6.23-7.61 13.17-10.34 19.39-1.66 3.8-1.15 6.24-2.75 9.7-2 4.3-7.09 7.64-9 11.78s-1.7 7.12-3.43 11.08c-1.82 4.14-5.32 8-7.59 11.77-3.82 6.27-6.68 13.45-10.34 19.4q-2.42 7.62-4.82 15.23c-1.21 1.44-3.9 2.41-4.83 4.17q-1 5.19-2.06 10.38c-2.52 6.14-6.37 13.44-9 19.39q-1 3.47-2.06 6.92c-1 1.55-3.78 2.1-4.84 3.47q-2.42 7.27-4.82 14.54c-2-1.05-3.7.45-6.92-.67-3.73-1.31-5.42-5-8.31-6.91-1.68-1.08-3.57-.52-5.54-1.37-2.23-1-4-3-6.24-4.14 1.37-9.36-12.09-16-14.58-24.88V869.6c-1.12-4.52-3.74-9.22-4.87-13.83v-15.22c5.91-10.29 9-25.18 13.76-36.7h-2.76c-1.17.8-3.39.75-5.54.71-5.82 12.91-19.27 15.94-26.12 26.34-3.11 4.7-2.67 12-5.5 16.62-9.28 15-21.5 30.74-29.66 45-2.09 3.65-9.34 9.16-11.74 13.17s-3.12 7.82-5.51 11.77c-1.8 3-4.78 6.47-6.21 9.7-1.65 3.72-1.91 7.35-4.83 9.7-1 .62-2.72 0-4.15.7-5.26 2.48-9.69 8.55-14.5 11.79.37-7.49-2.21-11.59-5.57-17.29l-4.16-3.45c.23-.92.46-1.84.68-2.77-.58-2.22-4.44-6.46-6.24-7.6l-8.31-2q-.69-4.85-1.4-9.69c-1-2.57-4.11-5.66-4.86-8.29-.81-2.85-.25-8-1.41-12.46-1-3.82-4.48-13.76-2.11-20.06 13.58-36.23 40.34-62.83 60.7-92.84l4.14-3.47c6.71-9 24.58-30.06 26.22-41.57a15.27 15.27 0 01-4.16-3.45c-4.23 2.17-9.4 2.29-14.52 4.18-13.64 5-29.53 10.79-47.73 11.17.05-2.68-.87-4.48-3.47-6.22-2-1.48-6.31-1.22-8.31-2.75-3.55-3.46-4.89-8.07-7.63-12.44-1.9-3-5.48-5.54-6.94-9-4.81-11.31-11-41.1-4.26-52.58 16.31-27.63 39.84-48.45 58.67-73.47 3.4-4.52 10.52-9 13.81-13.17 10.28-13 22.53-23.56 32.45-36.74l12.43-11.1c9.17-12.16 20.33-24 32.46-33.28 4.78-3.64 8.77-10.39 12.42-15.24l11.74-11.1c9.94-13.19 22.06-26.76 35.22-36.74 1.26-1 8.34-7.24 9-8.32 2.34-4 2.34-8.67 4.81-12.47 4.37-6.71 12.27-13.18 18.65-18 2.1-1.59 3.2-4.09 4.83-6.23 2-2.64 5.62-4.23 8.29-6.25 5.18-3.91 9.19-10.95 15.2-13.87l9-.71c.93 2.08.78 5 2.09 7.61 1.54 3 6.83 4.71 8.32 8.29v4.84c1.15 4.51 2.42 10.43 3.49 15.22v14.53c1 4.51 5.15 26.21 4.21 30.43-1.18 5.38-2.77 10.44-2.73 18zM865 878.39c-9.19 1.15-16.09 3.36-22.82 8.35l-6.26 6.26c-3.93 2.08-7.66 1.69-11.75 3.48-6.6 2.9-8.78 10.09-11.73 16.63-3.43-1.89-7.53.06-11.77-2.05-3.63-1.8-15.15-11.22-17.33-14.49-1.4-2.11-1.38-4.3-2.78-6.23l-3.46-2.76c-.7-1.56 1.17-2.21 0-4.15l-7.63-6.9v-13.15c-2.94-4.27.26-31.92 2-36.68 11.62-31.81 27.29-59.47 42-88 3.31-6.39 6.84-13.05 11-18.7 1.47-2 4.75-3 6.21-4.86 2.85-3.65-.6-8.07 2-12.46l4.84-4.85c4.2-6.43 6-13.19 9.64-20.09 4.47-8.56 12-15.7 17.26-23.56 4-6 5.84-12.29 9.65-18.7 3.09-5.22 8.34-10.55 11-15.94 1.91-3.81 2.37-7.7 4.83-11.08 1.52-2.11 5.76-3.05 6.9-5.55v-7.61c1.19-2.7 5.32-5.15 6.9-7.63q1.38-3.8 2.75-7.61c2.93-4.41 8.11-8.05 11.05-12.48 2.65-4 3-9.11 5.51-13.16 2.92-4.73 7.34-9.2 10.35-13.86 6.66-10.27 9.54-22.16 15.85-32.55 8.21-13.51 17.57-27.18 26.21-40.19 6.51-9.78 11-20.29 17.24-30.48 3-4.86 7.85-10.24 10.35-15.24 4.33-8.64 3.24-19.19 11.72-23.55 4.85-2.5 8.15 0 14.53-1.41a131.28 131.28 0 0129.05-2.83c1.9 2.93 5.7 6.31 6.94 9.67l-.69 2.77q2.1 7.26 4.18 14.53v10.38c8.92 35.3 4 67.06-4.63 101.72V541c-1.16 5.22-2.27 11.17-3.43 15.92-3.65 15-.64 35.37-4 49.83v20.76q-.3 20.76-.61 41.52c.24 6.75 1.5 16.84 0 23.53q.72 10.71 1.43 21.44l-2 21.46c1.1 5.31 3.42 29.47 1.45 36-.46 1.52-11 17.07-12.42 18a27.12 27.12 0 01-7.6 1.4c-2.89-4.5-9-7.49-11.79-11.05s-.89-8.27-6.25-9.67c-5.52 5.52-12 10.16-17.26 16-1.16 1.27-1.06 3.45-2.07 4.85-1.36 1.88-3.63 2.72-5.53 4.16l-9.66 10.4c-2.33 1.69-5.09 1.9-7.61 3.47-4.14 2.58-8.22 6.44-12.44 9-8.76 5.39-17.87 8.25-27 13.2-5.38 2.94-11.29 8.41-17.28 10.42l-10.38.71c-2.66 1.32-7.12 7.65-10.16 9.65-8.59 5.77-18.54 9.56-27 15.28-3.5 2.37-7.83 3.52-8.28 9 .52.74.42.65.7 2.07zm140.51-319.27c-3.84 6.39-9.59 12-13.8 18-2.89 4.14-4.18 8.84-6.89 13.16-1.9 3-5 6-6.91 9-19.13 30.57-35.63 61.76-54.47 92.83-6.41 10.56-11.51 22.27-17.24 33.25-1.66 3.19-6.53 9.1-6.2 11.77 1.44 2.07 2.57 2.16 6.23 2.07l11.77-3.46c5.73-3.27 11.94-7.25 18-10.41l11-4.87c1.34-.87 3.28-3.6 4.84-4.16 2-.73 5.51 1.11 6.92 1.37l11.76-1.41c6.18-1.88 10.34-5.86 15.2-8.33h2.77l9-9.7c4.35-3.3 10.14-3.46 10.36-11.09 2.71-4.37-.73-12.52 0-17.3.55-3.84-1.39-10.37-1.42-16.61q.3-22.14.61-44.28a80.77 80.77 0 01-2.11-15.91c-.13-8.92 2.49-30.56.62-33.91z" fill="#ff9d17" fill-rule="evenodd"/><path class="cls-2" d="M213.06 677.48q-.28.15-16.12 11.54a96.27 96.27 0 01-16.4 9.88 3.68 3.68 0 01-1.66.42q-1.94 0-3.59-2.48-2.49-3.32-2.63-3.45-.3-12.17 1.45-33.87 2-23.07 2-33.31 0-7.05-.58-13.27a6.16 6.16 0 014.55-1.8c3.5 0 5.53 1.28 6.08 3.85q.43 11.31-.89 33.88t-1 33.88a67.44 67.44 0 0010.06-5.82 94.68 94.68 0 019.79-6.23 17.15 17.15 0 002.41-.28 18.73 18.73 0 012.55-.28 4.27 4.27 0 014 2.21q1.63 3.06-.02 5.13zM358.51 619.4q.28 4 .29 8.28 0 9.39-1.87 28.3t-1.88 28.57q0 3.59.16 7a5 5 0 01-5.38 3.74c-4-.18-6.12-1.87-6.5-5.09a91.86 91.86 0 01-.57-10.21q0-9.39 2.22-28t2.22-27.88q0-3.58-.29-7a4.87 4.87 0 014.69-2.63 10.42 10.42 0 015.25 1.51 1.63 1.63 0 01.82-.42q.42 0 .42 1.38a5.59 5.59 0 000 1.93.81.81 0 00.42.52zM541.41 682.67a4.5 4.5 0 01.42 1.79 3.88 3.88 0 01-1.37 2.83c-.92.88-1.84 1.73-2.76 2.56q-17.12-1.2-39.34-7.37a53.05 53.05 0 01-6.49-2.2A10 10 0 01487 676a13.36 13.36 0 000-2.76q15.71-18 19.42-22.54a167.55 167.55 0 0016.78-24.45 18.17 18.17 0 00-9-2.19 58.53 58.53 0 00-8.49.91 56.63 56.63 0 01-8.34.91 20.26 20.26 0 01-6.49-.95q-4-2.34-4-5a2.78 2.78 0 01.68-1.79q4-3.19 11.59-3.2h5a26.51 26.51 0 006.62-.71q5.52.4 11.18 1c4.42.54 7.84 1.64 10.29 3.29s3.66 3.72 3.67 6.2a6.35 6.35 0 01-.41 2.21q-4.41 10.92-14.31 23.49-9.09 10.79-18.17 21.42 20.57 6 35.34 7.8c1.02 0 2.04 1.01 3.05 3.03zM686.51 683.85a11.1 11.1 0 01.84 3.86 6.31 6.31 0 01-2.34 4.84c-1.56 1.38-2.62 2-3.17 1.94q-6.76-1.23-8.57-10.89a107.78 107.78 0 00-4.59-17.52l-9.39.85a15.69 15.69 0 00-8.41 3.33q-1.5 4.28-4 15.19a101.42 101.42 0 01-4.52 15.32q-1.11 2.49-4.69 1.39-4.56-1.5-4.84-4.13-.42-5.25 3-14.08 4.13-10.08 4.52-14.36c.09-.83-.51-1.75-1.8-2.75s-1.93-1.8-1.93-2.35a2.31 2.31 0 01.62-1.45 5.38 5.38 0 012.89-1.25c1.52-.32 2.37-.8 2.55-1.45q2.47-6.9 7.82-25.68a235.4 235.4 0 018.09-25c.55-1.29 1.69-1.93 3.44-1.94a5.32 5.32 0 013.46 1.24c2.57 2.2 4.24 5.51 5 9.93q.84 5.65 1.54 11.31 6.97 32.55 14.48 53.65zm-20.2-26.32a88.91 88.91 0 00-1.81-11.45q-1.39-5.51-2.65-11-4.11 11.46-7.13 22.92a92.09 92.09 0 0111.59-.47zM856.7 692a2 2 0 01.42 1.24c0 2.11-2.2 3.73-6.61 4.84q-7.34-5.64-18.25-17.35-12.18-13.08-18.12-18.18-.4 3.6-1.48 18.77a96.79 96.79 0 01-2.44 18.22 7.31 7.31 0 00-1.73.69 3.52 3.52 0 01-2.41.42q-6.08-1.36-6.09-8.4a37.58 37.58 0 01.54-5.52c.36-2.67.59-4.33.68-5q.54-8 .65-19.05v-15a202.65 202.65 0 012-31.6q1.36-8.56 16.13-7.9 7.46.25 13 7.43a23 23 0 015.14 14.34q0 6.48-4.81 13a30.11 30.11 0 01-10.23 9.05c-1.65.93-2.48 1.94-2.48 3s1 2.63 2.91 4.28l4.42 3.58 15.21 13.77q9.54 8.59 13.55 15.37zm-29.24-61.91a18.72 18.72 0 00.27-4.41 10.16 10.16 0 00-2.43-5.24q-2-2.34-6.42-2.33-3.3 0-4.13 2.07a40.55 40.55 0 00-.68 7.87c0 1.2.15 4.28.44 9.25a76.33 76.33 0 010 9.24q11.49-8.61 12.95-16.48zM1002.57 657.86c-.92 2.12-1.79 4.23-2.61 6.35a23.51 23.51 0 01-3.57 5.94q-4.27 5.39-8.54 10.64-5.1 6.36-9.23 8.85c-.92 1.11-1.92 2.26-3 3.46a4.61 4.61 0 01-3.3 1.8 5.54 5.54 0 01-1.94-.41c-.73-.27-1.54-.6-2.41-1a3.39 3.39 0 01-1.87-1.79q-.42-5.79-.44-12.42t.51-20.15.51-20.15q0-9-.72-16.42c-.09-.09-1.11-1.14-3-3.16a5 5 0 01-1.8-3.31 3.76 3.76 0 01.27-1.38 3.39 3.39 0 013-1.94c1.2-.19 2.39-.33 3.59-.42q11.6 2.46 24.31 12.92a29 29 0 015.4 5.79q6.64 9.78 6.66 18.34a20.46 20.46 0 01-1.82 8.46zm-10-14.75q-1.26-8.68-14.79-15.29-.93 23.05-.45 48.85 15.55-15.61 15.53-29.7a26.5 26.5 0 00-.26-3.86zM1138.41 611.87q0 2.76-4 4.84a3 3 0 01-2.35.14c-1.29-.36-2-.55-2.07-.55a2.42 2.42 0 00-1.66.84 24.76 24.76 0 00-7.41 18.23 21.54 21.54 0 001.26 7.45q.54 1.51 10.53 21.36 6.65 13.25 6.67 22.48a31 31 0 01-3.7 14.64q-1.25 2.34-6.2 6.08-4 2.91-7.17 2.92a6.57 6.57 0 01-2.35-.42q-4.14-1.78-4.14-4.54 0-1.65 2.06-4c.36-.46 1.24-.74 2.62-.83a2.94 2.94 0 002.75-1.66 28.43 28.43 0 002.88-12.43q0-9-9-26t-9-27.24a33.15 33.15 0 013.28-15 22.68 22.68 0 0110.6-10.93 14.55 14.55 0 016.21-1.53c3.87 0 6.76 1.05 8.7 3.16a4.56 4.56 0 011.49 2.99z"/></g></svg>